<svg xmlns="http://www.w3.org/2000/svg" width="30" height="30" viewBox="0 0 30 30" fill="none">
    <path d="M26.2268 13.4124V16.701C26.2268 17.6082 25.433 18.4021 24.5258 18.4021H7.28866C5.47423 18.2887 4 16.8144 4 15C4 14.0928 4.34021 13.299 5.02062 12.6185C5.58763 12.0515 6.49485 11.5979 7.40206 11.5979H24.5258C25.433 11.7113 26.2268 12.3917 26.2268 13.4124Z" fill="#CECECE"/>
    <path d="M26.2268 5.70103V8.98969C26.2268 9.89691 25.433 10.6907 24.5258 10.6907H7.28866C5.47423 10.6907 4 9.21649 4 7.28866C4 6.38144 4.34021 5.58763 5.02062 4.90722C5.58763 4.34021 6.38144 4 7.28866 4H24.4124C25.433 4 26.2268 4.79381 26.2268 5.70103Z" fill="#CECECE"/>
    <path d="M26.2268 21.0103V24.299C26.2268 25.2062 25.433 26 24.5258 26H7.28866C5.47423 26 4 24.5258 4 22.7114C4 21.8041 4.34021 21.0103 5.02062 20.3299C5.58763 19.7629 6.49485 19.3093 7.40206 19.3093H24.5258C25.433 19.3093 26.2268 20.1031 26.2268 21.0103Z" fill="#CECECE"/>
    <path d="M22.598 6.04126C23.3918 6.04126 24.0722 6.72167 24.0722 7.51549" stroke="white" stroke-miterlimit="10" stroke-linecap="round" stroke-linejoin="round"/>
    <path d="M16.8144 11.5V20.799C16.8144 21.2526 16.3608 21.4794 16.0206 21.2526L14.5463 20.3454L13.4123 19.6649C13.0721 19.4381 12.5051 19.4381 12.1649 19.6649L9.55663 21.2526C9.21643 21.4794 8.76282 21.2526 8.76282 20.799V11.5H16.8144Z" fill="white"/>
    <path d="M15.5 11.7L15.4475 18.2004C15.4475 18.5 15.1479 18.6498 14.9232 18.5L13.9496 17.9008L13.2006 17.4514C12.9759 17.3016 12.6014 17.3016 12.3767 17.4514L10.654 18.5C10.4294 18.6498 10.1298 18.5 10.1298 18.2004L10.1822 11.7H15.5Z" fill="#E2E2E2"/>
</svg>