<svg class="mr-2" xmlns="http://www.w3.org/2000/svg" width="18" height="18" viewBox="0 0 18 18" fill="none">
    <path d="M9 4.5C4.82609 4.5 2.89428 6.79039 1.20269 8.8865C0.932437 9.22393 0.932437 9.77607 1.20269 10.1135C2.90429 12.2198 4.8361 14.5 9 14.5C13.1739 14.5 15.1057 12.2096 16.7973 10.1135C17.0676 9.77607 17.0676 9.22393 16.7973 8.8865C15.1057 6.78016 13.1739 4.5 9 4.5Z" stroke="#8A8A8F" stroke-miterlimit="10" stroke-linecap="round" stroke-linejoin="round" />
    <path d="M8.9999 12.2709C10.498 12.2709 11.7124 11.0303 11.7124 9.49997C11.7124 7.96961 10.498 6.729 8.9999 6.729C7.5018 6.729 6.28735 7.96961 6.28735 9.49997C6.28735 11.0303 7.5018 12.2709 8.9999 12.2709Z" stroke="#8A8A8F" stroke-miterlimit="10" stroke-linecap="round" stroke-linejoin="round" />
</svg>