<svg xmlns="http://www.w3.org/2000/svg" width="13" height="12" viewBox="0 0 13 12" fill="none">
    <path fill-rule="evenodd" clip-rule="evenodd" d="M6.84797 9.65287C6.63004 9.53874 6.36999 9.53874 6.15206 9.65287L4.13268 10.7104C3.58298 10.9983 2.94139 10.5322 3.04532 9.92044L3.42711 7.67309C3.46832 7.43055 3.38796 7.18323 3.21207 7.01123L1.58223 5.4175C1.13856 4.98366 1.38363 4.22944 1.99757 4.13923L4.2529 3.80787C4.4963 3.77211 4.70668 3.61926 4.81591 3.39882L5.82799 1.35627C6.10349 0.800251 6.89654 0.800251 7.17204 1.35627L8.18412 3.39882C8.29335 3.61926 8.50373 3.77211 8.74713 3.80787L11.0025 4.13923C11.6164 4.22944 11.8615 4.98366 11.4178 5.4175L9.78796 7.01123C9.61207 7.18323 9.53171 7.43055 9.57292 7.67309L9.95471 9.92043C10.0586 10.5322 9.41705 10.9983 8.86735 10.7104L6.84797 9.65287Z" fill="#FFCC00"/>
</svg>