<svg xmlns="http://www.w3.org/2000/svg" width="30" height="30" viewBox="0 0 30 30" fill="none">
    <path d="M17.4212 5.5C16.2012 5.5 15.1689 5.87538 14.1366 6.62613C13.6674 7.0015 13.1982 7.47072 12.8228 8.03378C12.4474 7.47072 11.9782 7.0015 11.509 6.62613C10.5706 5.87538 9.44444 5.5 8.22447 5.5C6.62913 5.5 5.12763 6.15691 4.09535 7.28303C3.06306 8.40916 2.5 10.0045 2.5 11.6937C2.5 13.4767 3.15691 15.0721 4.56456 16.7613C5.78453 18.2628 7.56757 19.7643 9.72598 21.5473C10.4767 22.1104 11.2275 22.8611 12.0721 23.6119C12.2598 23.7995 12.5413 23.8934 12.9167 23.8934C13.1982 23.8934 13.4797 23.7995 13.7613 23.6119C14.6059 22.8611 15.3566 22.2042 16.1074 21.5473C18.1719 19.7643 19.955 18.2628 21.2688 16.7613" stroke="white" stroke-width="1.3" stroke-miterlimit="10" stroke-linecap="round"/>
    <path d="M20.2084 9.14587H27.5" stroke="white" stroke-linecap="round"/>
    <path d="M23.8542 5.5L23.8542 12.7917" stroke="white" stroke-linecap="round"/>
</svg>