<svg xmlns="http://www.w3.org/2000/svg" width="18" height="18" viewBox="0 0 18 18" fill="none">
    <path d="M10.0508 3.54233C10.0508 3.54233 8.02085 5.9875 7.36723 6.77993C6.86899 7.38398 6.44746 7.50215 6.2752 7.5242C6.21986 7.53129 6.16408 7.52861 6.10829 7.52861H5C3.89543 7.52861 3 8.42404 3 9.5286L3 12.7645C3 13.8691 3.89543 14.7645 5 14.7645H5.90158C6.16219 15.0489 7.35237 15.8526 8.80316 15.8526H11.7867C13.5013 15.8526 14.974 14.6289 15.2871 12.9428L15.9772 9.20764C16.1337 8.33966 15.4649 7.52861 14.5756 7.52861H12.1567C11.6302 7.52861 11.2887 6.97367 11.5164 6.50412L12.4128 5.0435C12.7472 4.34627 12.4697 3.51387 11.7867 3.15815C11.1962 2.84511 10.4634 3.00874 10.0508 3.54233Z" stroke="#8A8A8F" stroke-miterlimit="10" stroke-linejoin="round"/>
    <path d="M5.90155 7.87325V15.1272" stroke="#8A8A8F"/>
</svg>