<svg xmlns="http://www.w3.org/2000/svg" width="16" height="16" viewBox="0 0 16 16" fill="none">
    <path d="M8 0C3.6 0 0 3.6 0 8C0 12.4 3.6 16 8 16C12.4 16 16 12.4 16 8C16 3.6 12.4 0 8 0ZM11 10.3C11.2 10.5 11.2 10.8 11 11C10.9 11.1 10.8 11.1 10.6 11.1C10.4 11.1 10.3 11.1 10.2 11L8 8.7L5.7 11C5.6 11.1 5.5 11.1 5.3 11.1C5.1 11.1 5.1 11.1 5 11C4.8 10.8 4.8 10.5 5 10.3L7.3 8L5 5.7C4.8 5.5 4.8 5.2 5 5C5.2 4.8 5.5 4.8 5.7 5L8 7.3L10.3 5C10.5 4.8 10.8 4.8 11 5C11.2 5.2 11.2 5.5 11 5.7L8.7 8L11 10.3Z" fill="#D0D0D0"/>
</svg>