<svg xmlns="http://www.w3.org/2000/svg" width="18" height="18" viewBox="0 0 18 18" fill="none">
    <path d="M7.90764 2.81733C8.27443 2.07401 9.33437 2.074 9.70117 2.81732L10.9833 5.41562C11.129 5.71079 11.4105 5.91539 11.7363 5.96272L14.6037 6.37934C15.4239 6.49851 15.7514 7.50647 15.1579 8.08502L13.083 10.1076C12.8474 10.3373 12.7398 10.6683 12.7954 10.9927L13.2851 13.8483C13.4251 14.6652 12.5676 15.2881 11.834 14.9023L9.26985 13.5539C8.97847 13.4006 8.63033 13.4006 8.33895 13.5539L5.7748 14.9023C5.04119 15.2881 4.18366 14.6652 4.32374 13.8483L4.81336 10.9927C4.86898 10.6683 4.76144 10.3373 4.52577 10.1076L2.4509 8.08502C1.8574 7.50647 2.18493 6.49851 3.00514 6.37934L5.87253 5.96272C6.19826 5.91539 6.47985 5.71079 6.6255 5.41562L7.90764 2.81733Z" fill="#FFD949"/>
</svg>