<svg xmlns="http://www.w3.org/2000/svg" width="30" height="30" viewBox="0 0 30 30" fill="none">
    <path d="M19.0666 11.0333C20.7327 11.0333 22.0833 9.68273 22.0833 8.01667C22.0833 6.35061 20.7327 5 19.0666 5C17.4005 5 16.0499 6.35061 16.0499 8.01667C16.0499 9.68273 17.4005 11.0333 19.0666 11.0333Z" stroke="white" stroke-miterlimit="10" stroke-linecap="round" stroke-linejoin="round"/>
    <path d="M9.01667 20.1917C10.6827 20.1917 12.0333 18.8411 12.0333 17.175C12.0333 15.509 10.6827 14.1584 9.01667 14.1584C7.35061 14.1584 6 15.509 6 17.175C6 18.8411 7.35061 20.1917 9.01667 20.1917Z" stroke="white" stroke-miterlimit="10" stroke-linecap="round" stroke-linejoin="round"/>
    <path d="M21.8749 25C23.5409 25 24.8915 23.6493 24.8915 21.9833C24.8915 20.3172 23.5409 18.9666 21.8749 18.9666C20.2088 18.9666 18.8582 20.3172 18.8582 21.9833C18.8582 23.6493 20.2088 25 21.8749 25Z" stroke="white" stroke-miterlimit="10" stroke-linecap="round" stroke-linejoin="round"/>
    <path d="M16.7418 9.94163L10.9167 14.8333" stroke="white" stroke-miterlimit="10" stroke-linecap="round" stroke-linejoin="round"/>
    <path d="M11.7251 18.5083L19.0668 20.8666" stroke="white" stroke-miterlimit="10" stroke-linecap="round" stroke-linejoin="round"/>
</svg>