<svg xmlns="http://www.w3.org/2000/svg" width="30" height="30" viewBox="0 0 30 30" fill="none">
    <path d="M26.08 21.72C26.08 22.38 25.9152 22.875 25.4209 23.37C23.9379 25.515 19.8185 27 14.8752 27C8.94328 27 4 24.525 4 21.72C4 19.905 5.97731 18.255 8.94328 17.265C10.7558 16.77 12.7331 16.44 15.04 16.44C21.1367 16.44 26.08 18.75 26.08 21.72Z" fill="#CECECE"/>
    <path d="M26.08 21.4409C26.08 22.066 25.9154 22.5349 25.4217 23.0037C24.4343 23.16 23.2823 23.16 22.2948 23.16C15.0537 23.16 8.96456 20.5033 8.79999 17.2214C10.6103 16.7526 12.5851 16.44 14.8891 16.44C21.1428 16.44 26.08 18.6279 26.08 21.4409Z" fill="#CECECE"/>
    <path d="M20.5677 8.88387C20.5677 9.65806 20.4129 10.2774 20.258 10.8968C19.4839 13.2194 17.1613 14.7677 14.6839 14.7677C11.4322 14.7677 8.79999 12.1355 8.79999 8.88387C8.79999 7.8 9.10967 6.87097 9.57418 5.94193C10.6581 4.23871 12.5161 3 14.6839 3C17.9355 3 20.5677 5.63226 20.5677 8.88387Z" fill="#E2E2E2"/>
    <path d="M20.5678 8.88387C20.5678 9.65806 20.4129 10.2774 20.2581 10.8968C19.4839 11.0516 18.7097 11.2064 17.9355 11.2064C14.2194 11.2064 11.1226 9.03871 9.57422 5.94193C10.6581 4.23871 12.5162 3 14.6839 3C17.9355 3 20.5678 5.63226 20.5678 8.88387Z" fill="#E2E2E2"/>
    <path d="M16.8517 8.2645C17.7068 8.2645 18.4001 7.57126 18.4001 6.71611C18.4001 5.86096 17.7068 5.16772 16.8517 5.16772C15.9965 5.16772 15.3033 5.86096 15.3033 6.71611C15.3033 7.57126 15.9965 8.2645 16.8517 8.2645Z" fill="white"/>
</svg>