<svg xmlns="http://www.w3.org/2000/svg" width="30" height="30" viewBox="0 0 30 30" fill="none">
    <path d="M19.3866 15.1443C18.4524 15.7671 17.3937 16.3276 16.2726 16.9504C9.73335 20.5003 3.81686 22.3064 3.06952 20.9986C2.8204 20.5626 3.25635 19.753 4.12826 18.8188C3.63003 17.5109 3.31863 16.1408 3.31863 14.6461C3.31863 11.5945 4.50193 8.85418 6.3703 6.79898C7.86499 11.6567 12.4113 15.2689 17.8296 15.2689C18.3901 15.2689 18.8883 15.2066 19.3866 15.1443Z" fill="#DADADA"/>
    <path d="M19.3866 15.1444C18.8883 15.2067 18.3278 15.2689 17.7673 15.2689C12.4113 15.2689 7.80269 11.719 6.308 6.79901C8.48776 4.43241 11.6017 3 14.9648 3C18.826 3 22.2514 4.86837 24.3689 7.73319C25.739 7.48408 26.6732 7.54636 26.9223 7.98231C27.5451 9.10333 24.3689 12.0927 19.3866 15.1444Z" fill="#DADADA"/>
    <path d="M23.8706 22.2442C21.7532 24.7353 18.5769 26.3546 14.9648 26.3546C12.0999 26.3546 9.5465 25.3581 7.4913 23.6766C9.35967 23.3029 11.7263 22.431 14.342 21.1854C16.0858 22.1819 18.141 22.8047 20.3207 22.8047C21.5663 22.7424 22.7496 22.5556 23.8706 22.2442Z" fill="#E2E2E2"/>
    <path d="M26.6732 14.6461C26.6732 17.511 25.6144 20.189 23.8706 22.1819C22.7496 22.4933 21.5663 22.6801 20.383 22.6801C18.2032 22.6801 16.148 22.1196 14.4042 21.0609C15.463 20.5626 16.5217 20.0021 17.6427 19.3171C21.5663 17.0127 24.8048 14.5216 26.4863 12.5287C26.6109 13.276 26.6732 13.9611 26.6732 14.6461Z" fill="#E2E2E2"/>
    <path d="M17.0822 9.91296C18.2173 9.91296 19.1374 8.99281 19.1374 7.85775C19.1374 6.7227 18.2173 5.80255 17.0822 5.80255C15.9472 5.80255 15.027 6.7227 15.027 7.85775C15.027 8.99281 15.9472 9.91296 17.0822 9.91296Z" fill="white"/>
</svg>