<svg xmlns="http://www.w3.org/2000/svg" width="30" height="30" viewBox="0 0 30 30" fill="none">
    <path d="M26.2043 11.9247L19.7742 6.33334C19.3549 5.91398 18.7957 5.7742 18.3764 5.7742C17.8172 5.7742 17.1183 6.05377 16.6989 6.47312C16.5592 6.75269 16.4194 6.89248 16.2796 7.03226L14.8817 5.91398C14.043 5.07527 13.9032 3.67742 14.742 2.69893C15.1613 2.27957 15.7205 2 16.4194 2C16.9785 2 17.3979 2.13979 17.8172 2.55914L25.6452 9.40861C26.3441 10.1075 26.6237 11.086 26.2043 11.9247Z" fill="#E2E2E2"/>
    <path d="M26.2043 11.9247C26.2043 12.0645 26.0645 12.2043 25.9247 12.4838C25.3656 12.9032 24.8064 13.1828 24.2473 13.1828C23.6882 13.1828 23.2688 13.043 22.8495 12.6236L16.4193 7.03222C16.4193 6.89244 16.5591 6.75265 16.6989 6.61287C17.1183 6.05373 17.8172 5.91394 18.3763 5.91394C18.9355 5.91394 19.3548 6.05373 19.7742 6.47308L26.2043 11.9247Z" fill="#E2E2E2"/>
    <path d="M22.4301 16.8173L22.0108 17.3764L14.4624 10.8065C13.7634 10.2474 12.785 10.2474 12.086 10.8065L7.05377 15C6.49463 15.4194 6.21506 15.9785 6.07527 16.6775L4.81721 24.3656L3.69893 25.6237C3.41936 25.9033 3 25.6237 3 25.2044L4.95699 12.6237C5.09678 11.9248 5.37635 11.3656 5.93549 10.9463L10.9677 6.75273C11.6667 6.19359 12.785 6.19359 13.4839 6.75273L22.1506 14.3011C22.7097 15 22.8495 15.9785 22.4301 16.8173Z" fill="#CECECE"/>
    <path d="M22.0108 17.3764L18.9355 22.2688C18.5161 22.828 17.957 23.2473 17.3979 23.3871L5.09677 27.0215C4.67742 27.1613 4.39785 26.742 4.67742 26.4624L12.3656 17.7957C13.0645 18.0753 13.9032 17.9355 14.4624 17.3764C15.0215 16.3979 14.8817 15.2796 14.1828 14.5807C13.3441 13.8817 12.2258 14.0215 11.5269 14.7205C10.9677 15.2796 10.9677 16.1183 11.3871 16.8172L4.8172 24.3656L5.93548 16.8172C6.21505 15.9785 6.49462 15.4194 7.05376 15L12.086 10.8065C12.7849 10.2473 13.9032 10.2473 14.6022 10.8065L22.0108 17.3764Z" fill="#CECECE"/>
    <path d="M26 26.9726C26 27.5434 25.4926 28 24.8584 28C24.8584 28 13.315 28 10.5243 28C9.89008 28 9.76323 27.0868 10.5243 26.9726C13.6956 26.6302 24.7315 26.0594 24.7315 26.0594C25.3658 25.8311 26 26.2877 26 26.9726Z" fill="#CECECE"/>
    <path d="M8.59142 11.086C8.31185 10.8065 8.45163 10.2473 8.7312 9.82797L10.2688 8.5699C10.6882 8.29033 11.2473 8.29033 11.5269 8.70969C11.9463 8.98926 11.8065 9.5484 11.5269 9.96775L9.84948 11.2258C9.56991 11.5054 9.01077 11.5054 8.59142 11.086Z" fill="white"/>
</svg>