<svg xmlns="http://www.w3.org/2000/svg" width="32" height="32" viewBox="0 0 32 32" fill="none">
    <path d="M7 23.0805V24.6667C7 26.7816 8.71839 28.5 10.8333 28.5H22.9943C25.1092 28.5 26.8276 26.7816 26.8276 24.6667C26.8276 24.0058 26.2989 23.477 25.7701 23.477L8.32184 21.8908C7.66092 21.8908 7 22.4195 7 23.0805Z" fill="#5CE5B2"/>
    <path d="M21.1437 5.5H10.8333C8.71839 5.5 7 7.21839 7 9.33333V9.86207C7 10.523 7.52874 11.0517 8.05747 11.0517L21.0115 12.2414V5.5H21.1437Z" fill="#5CE5B2"/>
    <path d="M22.8139 5.5H22.6817V12.3736L25.3254 12.6379C25.9863 12.6379 26.6472 12.1092 26.6472 11.4483V9.33333C26.6472 7.21839 24.9288 5.5 22.8139 5.5Z" fill="#1FCF84"/>
    <path d="M13.0805 13.5632L8.32184 13.1666C7.66092 13.1666 7 13.6954 7 14.3563V18.7183C7 19.3793 7.52874 19.908 8.05747 19.908L13.0805 20.3046V13.5632Z" fill="#1FCF84"/>
    <path d="M14.7989 13.6954V20.4368L25.5058 21.3621C26.1667 21.3621 26.8276 20.8333 26.8276 20.1724V15.9425C26.8276 15.2816 26.431 14.7529 25.7701 14.7529L14.7989 13.6954Z" fill="#1FCF84"/>
    <path d="M1.69575 6.88892L2.22011 6.35268L1.69575 6.88892L3.27201 8.43026L2.90277 10.6037C2.69782 11.8101 3.963 12.7293 5.047 12.1616L7 11.1388L8.953 12.1616C10.037 12.7293 11.3022 11.8101 11.0972 10.6037L10.728 8.43026L12.3043 6.88892C13.1791 6.0334 12.6959 4.54609 11.4852 4.36822L9.30402 4.04775L8.32521 2.07233C7.78192 0.97589 6.21808 0.97589 5.67479 2.07233L4.69598 4.04775L2.51477 4.36822C1.30411 4.54609 0.820855 6.0334 1.69575 6.88892Z" fill="#FFCC00" stroke="white" stroke-width="1.5"/>
    <path d="M24.75 17.5L24.75 19.25" stroke="white" stroke-width="1.5" stroke-linecap="round" stroke-linejoin="round"/>
</svg>